<?xml version="1.0" standalone="no"?>
<!DOCTYPE svg PUBLIC "-//W3C//DTD SVG 20010904//EN"
 "http://www.w3.org/TR/2001/REC-SVG-20010904/DTD/svg10.dtd">
<svg version="1.0" xmlns="http://www.w3.org/2000/svg"
 width="1291.000000pt" height="1291.000000pt" viewBox="0 0 1291.000000 1291.000000"
 preserveAspectRatio="xMidYMid meet">
<metadata>
Created by potrace 1.14, written by Peter Selinger 2001-2017
</metadata>
<g transform="translate(0.000000,1291.000000) scale(0.100000,-0.100000)"
fill="#000000" stroke="none">
<path d="M2788 12345 c-1 -1 -23 -5 -48 -8 -65 -7 -110 -18 -116 -28 -3 -5
-14 -9 -25 -9 -10 0 -19 -4 -19 -8 0 -5 -12 -15 -27 -23 -28 -15 -90 -95 -111
-142 -12 -29 -29 -135 -23 -152 2 -5 5 -35 7 -65 3 -56 10 -156 20 -265 7 -78
10 -126 19 -259 8 -127 8 -128 18 -143 4 -6 3 -14 -3 -18 -6 -4 -7 -11 -4 -17
4 -6 8 -36 10 -67 9 -139 21 -296 29 -381 4 -36 8 -94 10 -130 2 -36 4 -65 5
-65 1 0 3 -7 5 -15 11 -46 15 -58 27 -90 7 -19 17 -38 21 -41 5 -3 9 -12 11
-20 1 -8 10 -32 20 -54 37 -82 54 -121 69 -155 15 -35 36 -82 76 -172 43 -98
63 -144 77 -175 36 -83 49 -112 75 -166 15 -31 29 -61 30 -65 3 -14 19 -53 43
-105 48 -107 65 -144 91 -207 15 -36 37 -87 50 -115 73 -158 122 -275 117
-279 -3 -3 -1 -6 5 -6 6 0 14 -10 18 -22 4 -13 8 -25 9 -28 2 -3 8 -18 15 -35
7 -16 20 -48 31 -70 10 -22 21 -50 25 -62 3 -13 11 -23 16 -23 5 0 9 -7 9 -17
0 -9 14 -45 30 -80 17 -34 30 -65 30 -68 0 -2 13 -32 29 -67 16 -35 36 -79 44
-98 8 -19 25 -57 38 -85 13 -27 22 -53 21 -57 -1 -5 3 -8 8 -8 5 0 9 -3 8 -7
-2 -10 17 -56 42 -105 11 -21 17 -38 13 -38 -3 0 2 -9 11 -19 10 -11 15 -25
11 -30 -3 -6 -3 -11 2 -11 8 0 45 -81 45 -97 -1 -4 7 -16 15 -25 9 -10 13 -18
9 -18 -4 0 0 -12 8 -27 26 -50 56 -119 56 -131 0 -7 5 -12 10 -12 6 0 10 -11
10 -25 0 -14 5 -25 10 -25 6 0 10 -6 10 -14 0 -8 9 -31 19 -53 27 -51 61 -134
61 -144 0 -5 -28 -6 -62 -3 -116 10 -133 12 -213 18 -98 8 -157 16 -167 22 -5
3 -8 1 -8 -3 0 -5 -19 -8 -42 -8 -24 1 -47 -1 -53 -4 -5 -3 -16 -6 -22 -7 -31
-5 -112 -40 -153 -67 -51 -33 -150 -135 -150 -154 0 -7 -4 -13 -10 -13 -5 0
-9 -3 -8 -7 1 -5 -4 -21 -11 -38 -7 -16 -15 -38 -17 -47 -2 -10 -6 -28 -9 -40
-3 -13 -8 -48 -11 -78 -3 -30 -7 -71 -10 -90 -2 -19 -6 -57 -9 -85 -2 -27 -6
-68 -9 -90 -9 -72 -19 -159 -21 -195 -2 -19 -4 -35 -5 -35 0 0 -3 -20 -4 -45
-2 -25 -6 -67 -10 -95 -7 -61 -16 -139 -20 -181 -1 -17 -6 -36 -10 -42 -4 -7
-2 -12 4 -12 6 0 8 -5 4 -11 -14 -22 -15 -71 -10 -261 0 -27 3 -48 6 -48 3 0
6 -19 6 -43 1 -23 5 -78 8 -122 4 -44 8 -108 9 -142 1 -35 4 -63 7 -63 3 0 6
-33 7 -73 1 -39 3 -72 4 -72 1 0 3 -17 4 -38 2 -31 -3 -42 -31 -67 -19 -16
-34 -32 -34 -35 0 -3 -9 -16 -20 -28 -47 -50 -100 -206 -96 -279 1 -16 -1 -28
-4 -28 -3 0 -6 -12 -6 -27 -1 -26 -9 -119 -18 -188 -2 -16 -7 -61 -11 -100 -3
-38 -9 -90 -11 -115 -3 -25 -7 -61 -9 -80 -2 -19 -4 -35 -5 -35 -1 0 -3 -18
-4 -40 -2 -22 -6 -68 -10 -103 -4 -35 -9 -82 -11 -105 -2 -23 -5 -42 -5 -42
-1 0 -3 -18 -5 -40 -2 -22 -6 -62 -9 -90 -6 -49 -9 -145 -6 -155 1 -3 3 -23 5
-45 1 -22 4 -40 5 -40 2 0 8 -32 15 -90 7 -61 13 -100 31 -227 4 -24 8 -54 9
-68 2 -14 4 -25 5 -25 0 0 3 -20 6 -45 10 -88 12 -105 15 -105 1 0 3 -16 4
-36 1 -19 5 -41 9 -48 5 -7 6 -15 3 -18 -3 -2 1 -22 8 -44 8 -21 11 -39 8 -39
-4 0 -2 -5 5 -12 7 -7 12 -20 12 -30 0 -10 3 -18 8 -18 4 0 15 -15 25 -32 39
-71 135 -152 212 -179 22 -8 42 -16 45 -19 3 -3 11 -6 18 -8 38 -7 298 -23
424 -26 43 0 78 -3 78 -6 0 -3 35 -6 78 -7 42 0 120 -4 172 -7 257 -14 316
-18 389 -20 43 -2 84 -6 90 -10 6 -4 11 -2 11 4 0 6 5 8 12 3 7 -4 42 -8 78
-10 91 -3 255 -12 255 -13 0 -1 51 -3 114 -5 116 -4 136 -11 126 -45 -4 -14
-16 -207 -19 -300 -1 -25 -5 -50 -9 -57 -4 -6 -3 -14 3 -18 6 -4 7 -12 3 -18
-4 -6 -8 -32 -9 -57 -3 -90 -14 -296 -19 -355 -6 -63 -16 -262 -17 -305 0 -55
22 -141 50 -196 31 -60 129 -174 151 -174 6 0 11 -4 11 -9 0 -5 16 -15 35 -22
19 -7 35 -17 35 -22 0 -4 3 -6 8 -4 4 3 18 0 32 -6 14 -5 32 -12 40 -14 33 -8
355 -25 517 -27 46 0 83 -4 83 -8 0 -4 12 -3 26 2 14 6 23 7 21 2 -3 -4 41 -8
96 -9 114 -2 352 -11 352 -13 0 0 61 -3 135 -5 74 -3 185 -7 245 -9 241 -12
414 -18 502 -20 51 0 93 -5 93 -9 0 -4 9 -3 20 3 11 6 20 7 20 3 0 -5 75 -8
168 -7 191 3 202 4 202 17 0 6 3 8 6 4 8 -7 106 41 116 57 5 6 8 7 8 1 0 -5 6
-3 13 5 7 8 35 36 64 62 28 26 48 49 45 52 -3 3 2 6 11 6 8 0 19 9 22 21 4 11
9 18 11 16 3 -3 49 39 103 92 54 53 127 124 163 158 36 34 64 64 62 65 -1 2
10 12 27 23 16 11 29 26 29 33 0 7 5 10 10 7 6 -3 10 -2 10 3 0 4 9 18 21 30
28 30 87 144 93 179 2 15 5 28 6 28 10 0 15 185 11 450 -1 66 -2 135 -2 153
l1 33 128 -6 c70 -4 154 -8 187 -10 33 -2 112 -6 175 -9 63 -3 158 -8 210 -12
52 -3 135 -7 183 -8 48 -2 90 -6 94 -9 3 -4 14 -2 24 3 10 6 20 6 23 2 6 -11
181 -3 181 7 0 2 20 8 50 14 8 2 21 9 27 15 7 7 16 12 21 12 9 0 88 61 123 95
18 18 119 108 202 180 19 17 52 47 73 67 22 21 39 35 39 33 0 -2 13 8 28 23
32 30 54 50 187 167 50 43 101 89 114 102 13 13 28 23 34 23 6 0 8 3 4 6 -5 5
4 18 38 58 19 22 45 74 45 90 0 9 5 16 12 16 6 0 9 3 6 6 -4 3 -2 20 3 37 6
18 10 75 9 127 -3 203 -5 250 -10 250 -3 0 -6 33 -7 73 -1 39 -4 117 -7 172
-3 55 -8 154 -11 220 -4 66 -9 140 -12 165 -2 25 -4 54 -3 65 2 30 -6 160 -10
160 -2 0 -8 21 -16 60 -4 17 -14 41 -23 55 -9 14 -23 38 -31 54 -19 38 -122
142 -149 151 -12 3 -21 10 -21 15 0 7 -30 22 -50 25 -3 0 -12 5 -20 10 -15 10
-26 13 -72 22 -34 6 -34 11 -5 43 12 14 40 48 62 75 40 50 55 68 95 115 12 14
34 40 48 59 15 19 34 42 42 51 8 8 22 29 30 45 8 17 19 33 25 37 5 4 7 8 2 8
-4 0 0 16 8 36 8 20 13 40 10 44 -3 5 -1 11 4 14 4 3 7 61 5 128 -4 127 -11
263 -14 263 -1 0 -2 19 -4 43 -1 23 2 42 7 42 4 0 5 6 0 13 -9 15 -8 -6 -29
397 -10 182 -12 215 -14 215 -1 0 -4 16 -7 35 -2 19 -13 52 -24 74 -10 22 -19
46 -19 53 0 8 -7 16 -15 19 -8 4 -15 11 -15 18 0 21 -140 146 -165 146 -8 0
-19 8 -24 18 -6 9 -11 14 -11 10 0 -4 -19 0 -42 8 -24 9 -54 17 -68 19 -63 9
-262 28 -302 29 -16 1 -28 4 -28 8 0 4 -11 3 -25 -2 -14 -5 -25 -6 -25 -2 0 5
-10 8 -22 9 -13 0 -52 3 -88 6 -36 3 -96 9 -135 12 -38 3 -86 9 -105 12 -19 3
-60 6 -90 8 -30 2 -57 4 -60 5 -3 1 -18 2 -33 2 -16 1 -31 6 -33 12 -2 6 15
48 38 92 24 44 57 106 73 139 17 33 32 62 35 65 3 3 12 19 20 35 8 17 19 33
25 37 5 4 7 8 3 8 -4 0 3 19 16 43 77 139 126 237 119 237 -4 0 -3 4 4 8 6 4
33 48 58 97 26 50 51 96 57 103 6 6 7 12 3 12 -4 0 -3 6 3 13 5 6 29 48 52 92
64 122 78 149 80 160 1 6 7 17 14 25 7 8 20 29 28 45 8 17 20 41 28 55 27 51
40 76 149 285 41 77 89 167 107 201 18 34 31 64 27 68 -3 3 -2 6 3 6 5 0 34
48 64 108 30 59 57 109 60 112 3 3 20 34 38 70 18 36 54 106 79 155 26 50 50
92 55 93 4 2 8 11 8 21 0 9 4 21 9 26 7 8 114 211 169 320 9 17 19 32 23 35 4
3 9 14 11 25 1 11 6 22 9 25 3 3 29 50 58 104 28 55 56 105 62 113 6 7 9 13 5
13 -3 0 5 18 19 40 14 22 25 44 25 49 0 5 7 14 15 21 9 7 14 15 11 17 -2 2 9
28 25 56 16 29 34 64 40 80 6 15 15 27 21 27 5 0 7 4 3 9 -3 5 2 16 11 25 8 9
12 20 9 26 -3 5 -2 10 3 10 5 0 14 12 21 28 7 15 11 27 9 27 -1 0 6 14 18 30
11 17 33 57 50 90 16 33 31 62 34 65 8 8 113 218 116 232 2 7 6 24 9 38 13 48
11 150 -2 187 -8 21 -15 44 -15 51 -1 6 -5 12 -9 12 -4 0 -11 10 -15 23 -11
36 -105 117 -154 132 -14 4 -29 11 -35 15 -10 7 -105 27 -165 34 -19 2 -35 5
-35 6 0 2 -43 7 -120 14 -22 2 -40 5 -40 6 0 1 -16 3 -35 6 -19 2 -53 7 -75
10 -22 3 -56 7 -75 10 -32 4 -64 8 -145 18 -16 2 -48 7 -70 11 -22 4 -58 8
-80 11 -22 2 -53 6 -70 8 -16 3 -52 8 -80 11 -27 2 -59 6 -70 9 -22 4 -104 16
-150 21 -72 9 -122 16 -155 21 -19 4 -46 8 -60 9 -14 2 -47 6 -74 9 -26 3 -67
8 -90 12 -22 3 -54 8 -71 9 -16 2 -30 4 -30 5 0 1 -25 4 -55 7 -30 3 -62 9
-72 14 -10 6 -19 5 -23 -1 -4 -6 -12 -7 -18 -3 -6 4 -21 8 -33 9 -12 1 -38 5
-58 8 -21 3 -56 8 -79 11 -23 3 -58 8 -77 10 -150 23 -276 21 -315 -3 -5 -4
-17 -8 -26 -9 -25 -4 -86 -43 -128 -83 -39 -36 -97 -119 -93 -132 1 -5 -1 -8
-6 -8 -4 0 -13 -15 -21 -32 -8 -18 -17 -35 -20 -38 -4 -3 -12 -16 -18 -30 -21
-42 -60 -109 -73 -125 -7 -8 -9 -15 -6 -15 4 0 -1 -12 -12 -27 -33 -48 -147
-258 -144 -265 1 -5 -3 -8 -8 -8 -6 0 -10 -7 -10 -15 0 -8 -3 -15 -7 -15 -5 0
-17 -20 -28 -45 -11 -25 -23 -45 -28 -45 -4 0 -5 -4 -2 -10 3 -5 1 -10 -5 -10
-6 0 -8 -4 -5 -10 3 -5 2 -10 -4 -10 -5 0 -15 -16 -22 -35 -7 -19 -16 -35 -20
-35 -4 0 -12 -15 -19 -32 -8 -18 -19 -40 -26 -48 -7 -8 -14 -22 -16 -30 -2 -8
-6 -17 -9 -20 -5 -4 -30 -48 -83 -145 -6 -11 -15 -23 -21 -27 -5 -4 -6 -8 -1
-8 5 0 1 -9 -9 -20 -10 -11 -14 -20 -9 -20 5 0 4 -4 -2 -8 -6 -4 -26 -34 -43
-67 -33 -62 -77 -140 -117 -210 -13 -22 -36 -65 -51 -95 -15 -30 -31 -57 -34
-60 -3 -3 -9 -12 -12 -20 -4 -8 -23 -42 -42 -75 -19 -33 -42 -76 -52 -95 -9
-19 -20 -37 -23 -40 -4 -3 -13 -20 -21 -37 -8 -18 -17 -33 -21 -33 -5 0 -8 -5
-8 -11 0 -6 -17 -41 -39 -77 -21 -37 -55 -98 -76 -137 -21 -38 -46 -82 -56
-96 -10 -14 -16 -29 -12 -33 3 -3 1 -6 -5 -6 -7 0 -12 -4 -12 -9 0 -5 -16 -37
-34 -70 -19 -34 -32 -61 -28 -61 4 0 2 -4 -5 -8 -7 -4 -25 -32 -41 -62 -31
-57 -52 -75 -52 -42 0 11 -7 25 -15 32 -8 7 -15 19 -15 27 0 8 -7 27 -15 41
-29 53 -105 224 -105 238 0 8 -4 14 -10 14 -5 0 -10 7 -10 15 0 9 -7 27 -16
40 -9 13 -17 30 -18 37 -3 14 -68 157 -91 199 -8 14 -12 29 -8 33 3 3 1 6 -5
6 -7 0 -12 5 -12 11 0 6 -13 39 -29 73 -56 119 -75 161 -77 176 -2 8 -8 16
-13 18 -6 2 -11 11 -11 21 0 9 -5 22 -11 28 -6 6 -12 17 -13 24 -2 8 -14 37
-27 64 -13 28 -24 52 -24 55 -1 3 -16 37 -34 75 -74 155 -85 180 -86 185 -1 3
-12 28 -25 55 -13 28 -24 52 -25 55 -1 3 -10 23 -20 45 -10 22 -18 43 -17 48
1 4 -3 7 -8 7 -6 0 -10 4 -10 10 0 11 -53 131 -75 171 -8 14 -12 29 -8 33 3 3
1 6 -5 6 -7 0 -12 5 -12 11 0 10 -8 28 -83 189 -19 41 -35 78 -36 83 0 4 -19
43 -41 87 -22 44 -40 81 -39 82 0 3 -37 88 -95 211 -20 42 -36 82 -36 87 0 6
-5 10 -11 10 -5 0 -8 4 -4 9 3 5 1 12 -5 16 -6 4 -8 11 -5 16 4 5 1 9 -4 9 -6
0 -10 3 -9 8 0 4 -6 24 -16 44 -9 21 -15 39 -14 40 2 2 -7 18 -20 36 -13 17
-20 32 -16 32 3 0 1 7 -6 15 -7 8 -9 15 -4 15 5 0 5 4 -1 8 -5 4 -23 34 -39
67 -17 33 -35 65 -40 72 -29 33 -36 43 -36 50 -1 20 -163 129 -206 138 -11 2
-40 10 -66 18 -27 8 -48 12 -48 9 0 -4 -5 0 -10 8 -5 8 -10 10 -10 4 0 -9 -12
-9 -42 -3 -23 6 -47 8 -54 5 -6 -2 -15 -2 -19 2 -3 4 -18 8 -33 9 -15 1 -47 5
-72 9 -25 3 -54 7 -65 9 -11 1 -20 3 -20 4 0 1 -20 4 -45 6 -25 3 -58 6 -75 9
-16 2 -57 7 -90 11 -66 8 -100 13 -100 15 0 1 -17 3 -38 5 -21 2 -57 7 -80 9
-23 3 -62 8 -87 11 -25 3 -56 8 -70 11 -29 5 -77 11 -140 18 -25 3 -58 8 -75
10 -28 5 -58 9 -155 21 -19 2 -66 9 -105 15 -38 6 -90 12 -115 15 -25 2 -45 4
-45 5 0 3 -37 8 -93 14 -31 3 -70 8 -85 11 -15 3 -51 7 -80 10 -29 2 -52 4
-52 5 0 3 -42 9 -90 14 -27 3 -50 6 -50 6 0 2 -36 7 -105 14 -25 3 -45 5 -45
6 0 4 -81 14 -200 26 -27 2 -55 6 -62 9 -6 2 -13 2 -15 0z"/>
</g>
</svg>
